<?xml version="1.0" encoding="UTF-8"?>
<!--Generator: Apple Native CoreSVG 149-->
<!DOCTYPE svg
PUBLIC "-//W3C//DTD SVG 1.1//EN"
       "http://www.w3.org/Graphics/SVG/1.1/DTD/svg11.dtd">
<svg version="1.1" xmlns="http://www.w3.org/2000/svg" xmlns:xlink="http://www.w3.org/1999/xlink" width="3300" height="2200">
 <!--glyph: "uni1004E8.medium", point size: 100.000000, font version: "Version 16.0d18e1", template writer version: "8"-->
 <g id="Notes">
  <rect height="2200" id="artboard" style="fill:white;opacity:1" width="3300" x="0" y="0"/>
  <line id="" style="fill:none;stroke:black;opacity:1;stroke-width:0.5;" x1="263" x2="3036" y1="292" y2="292"/>
  <text style="stroke:none;fill:black;font-family:-apple-system,&quot;SF Pro Display&quot;,&quot;SF Pro Text&quot;,Helvetica,sans-serif;font-weight:bold;" transform="matrix(1 0 0 1 263 322)">Weight/Scale Variations</text>
  <text style="stroke:none;fill:black;font-family:-apple-system,&quot;SF Pro Display&quot;,&quot;SF Pro Text&quot;,Helvetica,sans-serif;text-anchor:middle;" transform="matrix(1 0 0 1 559.711 322)">Ultralight</text>
  <text style="stroke:none;fill:black;font-family:-apple-system,&quot;SF Pro Display&quot;,&quot;SF Pro Text&quot;,Helvetica,sans-serif;text-anchor:middle;" transform="matrix(1 0 0 1 856.422 322)">Thin</text>
  <text style="stroke:none;fill:black;font-family:-apple-system,&quot;SF Pro Display&quot;,&quot;SF Pro Text&quot;,Helvetica,sans-serif;text-anchor:middle;" transform="matrix(1 0 0 1 1153.13 322)">Light</text>
  <text style="stroke:none;fill:black;font-family:-apple-system,&quot;SF Pro Display&quot;,&quot;SF Pro Text&quot;,Helvetica,sans-serif;text-anchor:middle;" transform="matrix(1 0 0 1 1449.84 322)">Regular</text>
  <text style="stroke:none;fill:black;font-family:-apple-system,&quot;SF Pro Display&quot;,&quot;SF Pro Text&quot;,Helvetica,sans-serif;text-anchor:middle;" transform="matrix(1 0 0 1 1746.56 322)">Medium</text>
  <text style="stroke:none;fill:black;font-family:-apple-system,&quot;SF Pro Display&quot;,&quot;SF Pro Text&quot;,Helvetica,sans-serif;text-anchor:middle;" transform="matrix(1 0 0 1 2043.27 322)">Semibold</text>
  <text style="stroke:none;fill:black;font-family:-apple-system,&quot;SF Pro Display&quot;,&quot;SF Pro Text&quot;,Helvetica,sans-serif;text-anchor:middle;" transform="matrix(1 0 0 1 2339.98 322)">Bold</text>
  <text style="stroke:none;fill:black;font-family:-apple-system,&quot;SF Pro Display&quot;,&quot;SF Pro Text&quot;,Helvetica,sans-serif;text-anchor:middle;" transform="matrix(1 0 0 1 2636.69 322)">Heavy</text>
  <text style="stroke:none;fill:black;font-family:-apple-system,&quot;SF Pro Display&quot;,&quot;SF Pro Text&quot;,Helvetica,sans-serif;text-anchor:middle;" transform="matrix(1 0 0 1 2933.4 322)">Black</text>
  <line id="" style="fill:none;stroke:black;opacity:1;stroke-width:0.5;" x1="263" x2="3036" y1="1903" y2="1903"/>
  <g id="" transform="matrix(1 0 0 1 263 1933)">
   <path d="M9.24805 0.830078C13.5547 0.830078 17.1387-2.74414 17.1387-7.05078C17.1387-11.3574 13.5449-14.9316 9.23828-14.9316C4.94141-14.9316 1.36719-11.3574 1.36719-7.05078C1.36719-2.74414 4.95117 0.830078 9.24805 0.830078ZM9.24805-0.654297C5.70312-0.654297 2.87109-3.49609 2.87109-7.05078C2.87109-10.6055 5.69336-13.4473 9.23828-13.4473C12.793-13.4473 15.6348-10.6055 15.6445-7.05078C15.6543-3.49609 12.8027-0.654297 9.24805-0.654297ZM6.39648-6.31836L8.50586-6.31836L8.50586-4.19922C8.50586-3.75977 8.79883-3.45703 9.22852-3.45703C9.67773-3.45703 9.9707-3.75977 9.9707-4.19922L9.9707-6.31836L12.0996-6.31836C12.5391-6.31836 12.8418-6.61133 12.8418-7.04102C12.8418-7.48047 12.5391-7.7832 12.0996-7.7832L9.9707-7.7832L9.9707-9.89258C9.9707-10.3418 9.67773-10.6445 9.22852-10.6445C8.79883-10.6445 8.50586-10.3418 8.50586-9.89258L8.50586-7.7832L6.39648-7.7832C5.94727-7.7832 5.64453-7.48047 5.64453-7.04102C5.64453-6.61133 5.94727-6.31836 6.39648-6.31836Z"/>
  </g>
  <g id="" transform="matrix(1 0 0 1 281.506 1933)">
   <path d="M11.709 2.91016C17.1582 2.91016 21.6699-1.61133 21.6699-7.05078C21.6699-12.5 17.1484-17.0117 11.6992-17.0117C6.25977-17.0117 1.74805-12.5 1.74805-7.05078C1.74805-1.61133 6.26953 2.91016 11.709 2.91016ZM11.709 1.25C7.09961 1.25 3.41797-2.44141 3.41797-7.05078C3.41797-11.6602 7.08984-15.3516 11.6992-15.3516C16.3086-15.3516 20-11.6602 20.0098-7.05078C20.0195-2.44141 16.3184 1.25 11.709 1.25ZM7.98828-6.23047L10.8789-6.23047L10.8789-3.32031C10.8789-2.83203 11.2109-2.5 11.6895-2.5C12.1777-2.5 12.5195-2.83203 12.5195-3.32031L12.5195-6.23047L15.4297-6.23047C15.918-6.23047 16.25-6.5625 16.25-7.04102C16.25-7.5293 15.918-7.87109 15.4297-7.87109L12.5195-7.87109L12.5195-10.7617C12.5195-11.2695 12.1777-11.6016 11.6895-11.6016C11.2109-11.6016 10.8789-11.2598 10.8789-10.7617L10.8789-7.87109L7.98828-7.87109C7.48047-7.87109 7.14844-7.5293 7.14844-7.04102C7.14844-6.5625 7.49023-6.23047 7.98828-6.23047Z"/>
  </g>
  <g id="" transform="matrix(1 0 0 1 304.924 1933)">
   <path d="M14.9707 5.66406C21.9336 5.66406 27.6953-0.0976562 27.6953-7.05078C27.6953-14.0137 21.9238-19.7754 14.9609-19.7754C8.00781-19.7754 2.25586-14.0137 2.25586-7.05078C2.25586-0.0976562 8.01758 5.66406 14.9707 5.66406ZM14.9707 3.84766C8.93555 3.84766 4.08203-1.01562 4.08203-7.05078C4.08203-13.0957 8.92578-17.9492 14.9609-17.9492C21.0059-17.9492 25.8594-13.0957 25.8691-7.05078C25.8789-1.01562 21.0156 3.84766 14.9707 3.84766ZM10.0586-6.14258L14.0625-6.14258L14.0625-2.12891C14.0625-1.5918 14.4336-1.2207 14.9512-1.2207C15.4883-1.2207 15.8594-1.5918 15.8594-2.12891L15.8594-6.14258L19.8828-6.14258C20.4102-6.14258 20.791-6.51367 20.791-7.03125C20.791-7.56836 20.4199-7.94922 19.8828-7.94922L15.8594-7.94922L15.8594-11.9531C15.8594-12.5098 15.4883-12.8809 14.9512-12.8809C14.4336-12.8809 14.0625-12.5 14.0625-11.9531L14.0625-7.94922L10.0586-7.94922C9.50195-7.94922 9.13086-7.56836 9.13086-7.03125C9.13086-6.51367 9.51172-6.14258 10.0586-6.14258Z"/>
  </g>
  <text style="stroke:none;fill:black;font-family:-apple-system,&quot;SF Pro Display&quot;,&quot;SF Pro Text&quot;,Helvetica,sans-serif;font-weight:bold;" transform="matrix(1 0 0 1 263 1953)">Design Variations</text>
  <text style="stroke:none;fill:black;font-family:-apple-system,&quot;SF Pro Display&quot;,&quot;SF Pro Text&quot;,Helvetica,sans-serif;" transform="matrix(1 0 0 1 263 1971)">Symbols are supported in up to nine weights and three scales.</text>
  <text style="stroke:none;fill:black;font-family:-apple-system,&quot;SF Pro Display&quot;,&quot;SF Pro Text&quot;,Helvetica,sans-serif;" transform="matrix(1 0 0 1 263 1989)">For optimal layout with text and other symbols, vertically align</text>
  <text style="stroke:none;fill:black;font-family:-apple-system,&quot;SF Pro Display&quot;,&quot;SF Pro Text&quot;,Helvetica,sans-serif;" transform="matrix(1 0 0 1 263 2007)">symbols with the adjacent text.</text>
  <line id="" style="fill:none;stroke:#00AEEF;stroke-width:0.5;opacity:1.0;" x1="776" x2="776" y1="1919" y2="1933"/>
  <g id="" transform="matrix(1 0 0 1 776 1933)">
   <path d="M3.31055 0.126953C3.82812 0.126953 4.08203-0.0683594 4.26758-0.605469L5.52734-4.0625L11.2891-4.0625L12.5488-0.605469C12.7344-0.0683594 12.9883 0.126953 13.4961 0.126953C14.0137 0.126953 14.3457-0.185547 14.3457-0.673828C14.3457-0.839844 14.3164-0.986328 14.2383-1.20117L9.6582-13.3887C9.43359-13.9941 9.0332-14.2871 8.4082-14.2871C7.80273-14.2871 7.39258-13.9941 7.17773-13.3984L2.59766-1.19141C2.51953-0.976562 2.49023-0.830078 2.49023-0.664062C2.49023-0.175781 2.80273 0.126953 3.31055 0.126953ZM6.00586-5.53711L8.37891-12.1094L8.42773-12.1094L10.8008-5.53711Z"/>
  </g>
  <line id="" style="fill:none;stroke:#00AEEF;stroke-width:0.5;opacity:1.0;" x1="792.836" x2="792.836" y1="1919" y2="1933"/>
  <text style="stroke:none;fill:black;font-family:-apple-system,&quot;SF Pro Display&quot;,&quot;SF Pro Text&quot;,Helvetica,sans-serif;font-weight:bold;" transform="matrix(1 0 0 1 776 1953)">Margins</text>
  <text style="stroke:none;fill:black;font-family:-apple-system,&quot;SF Pro Display&quot;,&quot;SF Pro Text&quot;,Helvetica,sans-serif;" transform="matrix(1 0 0 1 776 1971)">Leading and trailing margins on the left and right side of each symbol</text>
  <text style="stroke:none;fill:black;font-family:-apple-system,&quot;SF Pro Display&quot;,&quot;SF Pro Text&quot;,Helvetica,sans-serif;" transform="matrix(1 0 0 1 776 1989)">can be adjusted by modifying the x-location of the margin guidelines.</text>
  <text style="stroke:none;fill:black;font-family:-apple-system,&quot;SF Pro Display&quot;,&quot;SF Pro Text&quot;,Helvetica,sans-serif;" transform="matrix(1 0 0 1 776 2007)">Modifications are automatically applied proportionally to all</text>
  <text style="stroke:none;fill:black;font-family:-apple-system,&quot;SF Pro Display&quot;,&quot;SF Pro Text&quot;,Helvetica,sans-serif;" transform="matrix(1 0 0 1 776 2025)">scales and weights.</text>
  <g id="" transform="matrix(1 0 0 1 1289 1933)">
   <path d="M2.8418 1.86523L4.54102 3.57422C5.40039 4.44336 6.38672 4.38477 7.31445 3.35938L17.4902-7.85156C17.7539-7.76367 18.0273-7.7832 18.3398-7.8418L19.4043-8.03711L20.0684-7.36328L20.0293-6.80664C19.9902-6.30859 20.1172-5.92773 20.6055-5.44922L21.3672-4.70703C21.8457-4.22852 22.4609-4.19922 22.9297-4.66797L25.8398-7.58789C26.3086-8.05664 26.2891-8.65234 25.8105-9.13086L25.0391-9.89258C24.5605-10.3711 24.1895-10.5273 23.7109-10.4883L23.1348-10.4395L22.4902-11.0742L22.7344-12.1973C22.8613-12.7637 22.7051-13.2031 22.1191-13.7891L19.9219-15.9766C16.582-19.2969 12.1484-19.2188 9.25781-16.3281C8.83789-15.918 8.80859-15.3418 9.04297-14.9512C9.27734-14.5898 9.73633-14.3555 10.3809-14.5215C11.8457-14.8633 13.3691-14.9219 14.7949-13.9844L14.209-12.5293C14.0137-12.0508 13.9844-11.6504 14.1113-11.2891L3.04688-0.898438C2.06055 0.0195312 1.98242 0.996094 2.8418 1.86523ZM10.752-15.957C13.1836-17.7344 16.4746-17.4316 18.7012-15.2051L21.1328-12.793C21.3672-12.5586 21.4062-12.373 21.3379-12.0312L21.0156-10.5469L22.5195-9.0625L23.5059-9.12109C23.7598-9.13086 23.8379-9.11133 24.0332-8.91602L24.6094-8.33984L22.168-5.89844L21.5918-6.47461C21.3965-6.66992 21.3672-6.74805 21.377-7.01172L21.4453-7.98828L19.9512-9.47266L18.4277-9.21875C18.1055-9.15039 17.959-9.17969 17.7148-9.41406L15.7129-11.416C15.459-11.6504 15.4297-11.8164 15.5859-12.1875L16.4648-14.2773C14.9023-15.7324 12.8711-16.3574 10.8398-15.7617C10.6836-15.7227 10.625-15.8496 10.752-15.957ZM5.27344 2.30469L4.10156 1.14258C3.63281 0.683594 3.74023 0.341797 4.14062-0.0195312L14.9512-10.1953L16.416-8.71094L6.42578 2.27539C6.07422 2.67578 5.74219 2.77344 5.27344 2.30469Z"/>
  </g>
  <text style="stroke:none;fill:black;font-family:-apple-system,&quot;SF Pro Display&quot;,&quot;SF Pro Text&quot;,Helvetica,sans-serif;font-weight:bold;" transform="matrix(1 0 0 1 1289 1953)">Exporting</text>
  <text style="stroke:none;fill:black;font-family:-apple-system,&quot;SF Pro Display&quot;,&quot;SF Pro Text&quot;,Helvetica,sans-serif;" transform="matrix(1 0 0 1 1289 1971)">Symbols should be outlined when exporting to ensure the</text>
  <text style="stroke:none;fill:black;font-family:-apple-system,&quot;SF Pro Display&quot;,&quot;SF Pro Text&quot;,Helvetica,sans-serif;" transform="matrix(1 0 0 1 1289 1989)">design is preserved when submitting to Xcode.</text>
  <text id="template-version" style="stroke:none;fill:black;font-family:-apple-system,&quot;SF Pro Display&quot;,&quot;SF Pro Text&quot;,Helvetica,sans-serif;text-anchor:end;" transform="matrix(1 0 0 1 3036 1933)">Template v.2.0</text>
  <text style="stroke:none;fill:black;font-family:-apple-system,&quot;SF Pro Display&quot;,&quot;SF Pro Text&quot;,Helvetica,sans-serif;text-anchor:end;" transform="matrix(1 0 0 1 3036 1951)">Requires Xcode 12 or greater</text>
  <text style="stroke:none;fill:black;font-family:-apple-system,&quot;SF Pro Display&quot;,&quot;SF Pro Text&quot;,Helvetica,sans-serif;text-anchor:end;" transform="matrix(1 0 0 1 3036 1969)">Generated from scribble</text>
  <text style="stroke:none;fill:black;font-family:-apple-system,&quot;SF Pro Display&quot;,&quot;SF Pro Text&quot;,Helvetica,sans-serif;text-anchor:end;" transform="matrix(1 0 0 1 3036 1987)">Typeset at 100 points</text>
  <text style="stroke:none;fill:black;font-family:-apple-system,&quot;SF Pro Display&quot;,&quot;SF Pro Text&quot;,Helvetica,sans-serif;" transform="matrix(1 0 0 1 263 726)">Small</text>
  <text style="stroke:none;fill:black;font-family:-apple-system,&quot;SF Pro Display&quot;,&quot;SF Pro Text&quot;,Helvetica,sans-serif;" transform="matrix(1 0 0 1 263 1156)">Medium</text>
  <text style="stroke:none;fill:black;font-family:-apple-system,&quot;SF Pro Display&quot;,&quot;SF Pro Text&quot;,Helvetica,sans-serif;" transform="matrix(1 0 0 1 263 1586)">Large</text>
 </g>
 <g id="Guides">
  <g id="H-reference" style="fill:#27AAE1;stroke:none;" transform="matrix(1 0 0 1 339 696)">
   <path d="M0.976562 0L3.66211 0L12.9883-24.4629L45.752-24.4629L55.127 0L57.7637 0L30.6152-70.459L28.125-70.459ZM29.3457-67.1387L29.4434-67.1387L44.873-26.709L13.8672-26.709Z"/>
  </g>
  <line id="Baseline-S" style="fill:none;stroke:#27AAE1;opacity:1;stroke-width:0.5;" x1="263" x2="3036" y1="696" y2="696"/>
  <line id="Capline-S" style="fill:none;stroke:#27AAE1;opacity:1;stroke-width:0.5;" x1="263" x2="3036" y1="625.541" y2="625.541"/>
  <g id="H-reference" style="fill:#27AAE1;stroke:none;" transform="matrix(1 0 0 1 339 1126)">
   <path d="M0.976562 0L3.66211 0L12.9883-24.4629L45.752-24.4629L55.127 0L57.7637 0L30.6152-70.459L28.125-70.459ZM29.3457-67.1387L29.4434-67.1387L44.873-26.709L13.8672-26.709Z"/>
  </g>
  <line id="Baseline-M" style="fill:none;stroke:#27AAE1;opacity:1;stroke-width:0.5;" x1="263" x2="3036" y1="1126" y2="1126"/>
  <line id="Capline-M" style="fill:none;stroke:#27AAE1;opacity:1;stroke-width:0.5;" x1="263" x2="3036" y1="1055.54" y2="1055.54"/>
  <g id="H-reference" style="fill:#27AAE1;stroke:none;" transform="matrix(1 0 0 1 339 1556)">
   <path d="M0.976562 0L3.66211 0L12.9883-24.4629L45.752-24.4629L55.127 0L57.7637 0L30.6152-70.459L28.125-70.459ZM29.3457-67.1387L29.4434-67.1387L44.873-26.709L13.8672-26.709Z"/>
  </g>
  <line id="Baseline-L" style="fill:none;stroke:#27AAE1;opacity:1;stroke-width:0.5;" x1="263" x2="3036" y1="1556" y2="1556"/>
  <line id="Capline-L" style="fill:none;stroke:#27AAE1;opacity:1;stroke-width:0.5;" x1="263" x2="3036" y1="1485.54" y2="1485.54"/>
  <line id="left-margin" style="fill:none;stroke:#00AEEF;stroke-width:0.5;opacity:1.0;" x1="1390.23" x2="1390.23" y1="1030.79" y2="1150.12"/>
  <line id="right-margin" style="fill:none;stroke:#00AEEF;stroke-width:0.5;opacity:1.0;" x1="1509.46" x2="1509.46" y1="1030.79" y2="1150.12"/>
 </g>
 <g id="Symbols">
  <g id="Black-L" transform="matrix(1 0 0 1 2852.15 1556)">
   <path d="M15.4785-17.334C19.0918-13.623 24.7559-13.6719 28.418-17.334L39.502-28.418C83.2031-72.1191 98.1445-85.4492 101.758-81.9336C104.688-79.0039 95.2148-68.9453 77.5391-48.1445C60.1562-27.6855 38.623-3.66211 54.3457 12.1094C68.7988 26.6602 90.7715 7.56836 106.592-7.4707C116.455-16.7969 121.68-21.4844 124.121-23.7305C122.754-22.2168 120.703-19.6289 118.262-15.332C112.256-4.98047 103.76 10.1562 113.672 20.0684C121.24 27.6367 132.861 24.0234 146.484 10.4004C150.488 6.34766 150.781 0.683594 147.021-3.02734C143.408-6.54297 137.939-6.5918 134.229-3.125C132.861-1.9043 131.543-0.585938 130.273 0.683594C131.494-1.12305 132.764-3.125 133.887-5.0293C143.994-21.9238 146.045-31.3965 139.16-38.2324C130.469-46.875 116.553-42.041 93.75-20.6543C78.4668-6.39648 69.0918 0.830078 67.2363-1.02539C65.332-2.92969 72.7051-14.7949 91.3086-36.2305C119.238-68.5059 126.514-83.0078 114.6-94.8242C99.707-109.668 85.0586-99.7559 26.6113-41.3086L15.5273-30.2246C11.9629-26.6113 11.9629-20.9961 15.4785-17.334Z"/>
  </g>
  <g id="Heavy-L" transform="matrix(1 0 0 1 2556.61 1556)">
   <path d="M15.1367-17.5293C18.3105-14.2578 23.1934-14.3555 26.3672-17.5293L37.5-28.6133C80.7129-71.8262 96.8262-86.6211 101.416-82.0801C105.029-78.5156 94.8242-67.334 77.1484-46.5332C59.9121-26.2207 39.1113-3.07617 54.0039 11.9141C67.4805 25.4883 88.2324 8.00781 104.443-7.51953C119.531-21.9727 124.951-26.4648 125.684-25.8301C126.416-25.0977 123.145-22.2168 118.311-13.8184C112.354-3.4668 104.102 10.6445 113.281 19.873C120.312 26.9043 131.396 23.3887 144.482 10.2051C148.047 6.5918 148.291 1.70898 145.02-1.51367C141.895-4.63867 137.109-4.63867 133.838-1.61133C128.467 3.41797 123.877 7.8125 123.682 7.76367C123.779 7.66602 127.637 1.70898 131.689-4.98047C141.455-21.1914 143.652-30.2734 137.061-36.8164C128.711-45.1172 115.43-39.8926 93.2617-18.9941C77.0996-3.80859 67.7246 2.97852 65.2344 0.537109C62.4512-2.19727 69.8242-14.0137 89.1113-36.1816C116.406-67.7246 123.975-82.0312 112.598-93.3105C98.3398-107.52 83.9844-97.5098 26.3184-39.7949L15.1855-28.7109C12.0605-25.5859 12.1094-20.7031 15.1367-17.5293Z"/>
  </g>
  <g id="Bold-L" transform="matrix(1 0 0 1 2261.19 1556)">
   <path d="M14.7949-17.7246C17.3828-14.9902 21.4844-15.0391 24.1211-17.7246L35.2539-28.8086C77.8809-71.4844 95.3125-87.9395 101.025-82.2754C105.371-78.0273 94.3359-65.5273 76.709-44.7266C59.6191-24.6094 39.6484-2.39258 53.6133 11.7188C66.0156 24.1699 85.4004 8.49609 102.051-7.56836C116.553-21.582 123.535-27.7344 125.244-26.0742C126.758-24.5605 123.34-20.752 118.408-12.207C112.402-1.75781 104.443 11.2305 112.842 19.6289C119.287 26.0742 129.736 22.7051 142.285 9.91211C145.312 6.88477 145.508 2.83203 142.773 0.146484C140.137-2.44141 136.182-2.44141 133.447 0.0976562C126.855 6.29883 122.168 10.1562 121.436 9.47266C120.752 8.88672 124.219 3.41797 129.248-4.88281C138.623-20.3613 140.967-29.0039 134.766-35.2051C126.709-43.2129 114.16-37.5 92.6758-17.0898C75.5859-0.927734 66.2109 5.41992 62.9883 2.29492C59.2285-1.36719 66.6016-13.0859 86.6211-36.1328C113.232-66.8457 121.094-80.9082 110.352-91.6504C96.8262-105.127 82.7637-95.0195 25.9277-38.1348L14.8438-27.0508C12.207-24.4141 12.2559-20.3613 14.7949-17.7246Z"/>
  </g>
  <g id="Semibold-L" transform="matrix(1 0 0 1 1965.39 1556)">
   <path d="M14.5508-17.8711C16.7969-15.4785 20.2637-15.5762 22.5586-17.8711L33.6914-28.9551C75.9766-71.2402 94.2871-88.8672 100.781-82.4219C105.615-77.6367 93.9941-64.2578 76.3672-43.5059C59.4238-23.4863 39.9902-1.9043 53.3691 11.5723C64.9902 23.2422 83.4473 8.83789 100.391-7.61719C114.453-21.2891 122.559-28.5645 124.951-26.2207C127.002-24.2188 123.486-19.7266 118.457-11.0352C112.451-0.585938 104.736 11.6211 112.549 19.4336C118.604 25.4883 128.613 22.2168 140.771 9.76562C143.408 7.08008 143.555 3.61328 141.211 1.26953C138.916-0.927734 135.547-0.927734 133.154 1.26953C125.781 8.25195 121.045 11.7676 119.922 10.6934C118.799 9.57031 121.924 4.49219 127.588-4.83398C136.621-19.8242 139.111-28.125 133.154-34.082C125.342-41.8457 113.281-35.8887 92.2852-15.8203C74.5605 1.02539 65.1367 7.12891 61.4258 3.4668C57.0312-0.830078 64.4043-12.5 84.9121-36.1328C111.035-66.2598 119.141-80.1758 108.789-90.4785C95.752-103.467 81.9336-93.2617 25.6836-37.0117L14.5508-25.8789C12.3047-23.6328 12.3535-20.166 14.5508-17.8711Z"/>
  </g>
  <g id="Medium-L" transform="matrix(1 0 0 1 1669.36 1556)">
   <path d="M14.3555-17.9688C16.3574-15.8691 19.3848-15.918 21.3867-17.9688L32.5195-29.0527C74.5117-71.0449 93.5059-89.5508 100.586-82.5195C105.762-77.3926 93.75-63.3301 76.123-42.5293C59.2285-22.6562 40.2832-1.51367 53.1738 11.4746C64.209 22.5586 81.9824 9.13086 99.1211-7.61719C112.891-21.0938 121.826-29.1992 124.756-26.3672C127.197-23.9258 123.584-18.9941 118.506-10.1562C112.451 0.292969 104.932 11.9141 112.354 19.3359C118.066 25.0488 127.734 21.875 139.6 9.61914C141.992 7.22656 142.09 4.19922 140.039 2.14844C138.037 0.195312 135.059 0.195312 132.959 2.19727C124.951 9.76562 120.166 12.9395 118.799 11.5723C117.285 10.1074 120.166 5.27344 126.318-4.83398C135.156-19.3848 137.695-27.4902 131.982-33.2031C124.316-40.8691 112.646-34.6191 91.9434-14.8438C73.7305 2.53906 64.3555 8.39844 60.2539 4.39453C55.3711-0.390625 62.6953-12.0117 83.5938-36.084C109.375-65.7715 117.627-79.5898 107.617-89.5996C94.9219-102.246 81.2988-91.9434 25.4395-36.1328L14.3555-25C12.3535-22.998 12.4023-19.9707 14.3555-17.9688Z"/>
  </g>
  <g id="Regular-L" transform="matrix(1 0 0 1 1373.55 1556)">
   <path d="M14.1113-18.1152C15.7227-16.4062 18.2129-16.4551 19.873-18.1152L30.957-29.1992C72.5586-70.8008 92.5293-90.4297 100.342-82.666C106.006-77.002 93.4082-62.1094 75.8301-41.3086C59.0332-21.5332 40.625-1.07422 52.9297 11.3281C63.1836 21.6797 80.0781 9.47266 97.5098-7.66602C110.84-20.8496 120.898-30.0293 124.463-26.5137C127.393-23.584 123.682-17.9688 118.555-9.0332C112.5 1.46484 105.176 12.2559 112.061 19.1895C117.383 24.4629 126.611 21.3867 138.086 9.47266C140.137 7.42188 140.186 4.98047 138.477 3.32031C136.816 1.66016 134.424 1.70898 132.666 3.36914C123.877 11.6699 119.043 14.5508 117.285 12.7441C115.283 10.791 117.871 6.34766 124.658-4.78516C133.203-18.7988 135.889-26.6113 130.371-32.1289C122.949-39.5508 111.768-33.0078 91.5527-13.5742C72.7051 4.49219 63.2812 10.0586 58.6914 5.56641C53.1738 0.146484 60.498-11.4258 81.9336-36.0352C107.178-65.1855 115.723-78.8086 106.055-88.4277C93.8965-100.586 80.4688-90.2344 25.1953-34.9609L14.1113-23.877C12.4512-22.2168 12.5488-19.7754 14.1113-18.1152Z"/>
  </g>
  <g id="Light-L" transform="matrix(1 0 0 1 1077.77 1556)">
   <path d="M13.8184-17.7734C15.0879-16.4551 16.9434-16.4551 18.2617-17.7734L29.3945-28.8574C75.0488-74.5605 92.0898-90.2832 100.049-82.373C106.104-76.3672 94.4824-62.0117 75.2441-39.3555C58.7891-19.9707 40.9668-0.146484 52.6855 11.6699C61.8164 20.8496 77.0996 11.4258 95.5566-6.98242C109.912-21.3867 120.166-30.127 124.072-26.2695C127.148-23.2422 123.926-17.5781 118.311-7.76367C112.207 2.7832 105.322 13.0371 111.67 19.4336C116.602 24.3164 125.537 21.4844 136.621 9.66797C138.135 8.10547 138.232 6.20117 136.914 4.88281C135.596 3.66211 133.74 3.66211 132.373 4.98047C123.975 13.0859 117.969 16.6504 115.82 14.502C113.525 12.207 116.162 6.88477 122.998-4.24805C131.641-18.457 133.691-25.5859 128.662-30.6152C121.924-37.3535 111.523-31.7383 90.8691-11.5234C72.8027 6.00586 62.3535 12.3047 57.1289 7.22656C50.8301 1.02539 59.1797-11.377 79.9316-35.3027C106.104-65.4785 113.281-77.9785 104.492-86.8164C92.9688-98.3398 80.4688-88.916 24.9512-33.3984L13.8184-22.2656C12.5-20.9473 12.5977-19.0918 13.8184-17.7734Z"/>
  </g>
  <g id="Thin-L" transform="matrix(1 0 0 1 782.277 1556)">
   <path d="M13.4766-17.3828C14.2578-16.5039 15.332-16.5039 16.1621-17.3828L27.2461-28.4668C78.2715-79.4922 91.5039-90.0391 99.6582-81.9336C106.201-75.4883 95.8496-61.9141 74.4629-36.6699C58.4961-17.8711 41.4062 1.07422 52.2949 12.0605C59.9609 19.7754 73.1934 14.0625 92.9199-6.05469C108.691-22.1191 119.189-30.2734 123.584-25.9277C126.855-22.7539 124.268-17.0898 117.92-6.05469C111.816 4.54102 105.566 14.0625 111.182 19.7266C115.625 24.1211 124.072 21.582 134.668 9.91211C135.547 8.98438 135.693 7.86133 134.814 7.03125C133.936 6.25 132.861 6.25 131.934 7.17773C124.121 14.8926 116.504 19.4824 113.867 16.7969C111.133 14.1113 113.916 7.61719 120.752-3.51562C129.541-17.9688 130.811-24.2188 126.416-28.6133C120.605-34.4238 111.182-30.0293 89.9414-8.88672C72.9004 8.00781 61.084 15.2344 55.0293 9.375C47.7051 2.19727 57.4219-11.3281 77.2949-34.2773C104.688-65.8691 110.059-76.9043 102.393-84.668C91.6992-95.4102 80.5176-87.207 24.5605-31.25L13.4766-20.166C12.5977-19.2871 12.6953-18.2129 13.4766-17.3828Z"/>
  </g>
  <g id="Ultralight-L" transform="matrix(1 0 0 1 486.2 1556)">
   <path d="M13.2812-17.1387C13.8184-16.5527 14.502-16.5527 15.0879-17.1387L26.1719-28.2715C79.9316-82.0312 91.2109-89.8926 99.4629-81.7383C106.299-75 96.5332-61.8652 74.0234-35.3516C58.3008-16.8457 41.6016 1.70898 52.0996 12.3047C58.9844 19.2383 71.1914 15.3809 91.6016-5.61523C108.008-22.5098 118.701-30.3223 123.34-25.7812C126.66-22.5098 124.414-16.7969 117.725-5.17578C111.621 5.46875 105.664 14.5996 110.938 19.873C115.088 24.0234 123.34 21.6309 133.691 10.0586C134.229 9.42383 134.424 8.74023 133.691 8.10547C133.105 7.61719 132.422 7.56836 131.738 8.30078C124.219 15.8691 115.771 20.8984 112.842 17.9688C109.912 15.0391 112.793 8.00781 119.629-3.17383C128.516-17.6758 129.346-23.5352 125.244-27.6367C119.922-32.959 110.986-29.1504 89.4531-7.51953C72.998 9.0332 60.4004 16.748 53.9551 10.4492C46.1426 2.83203 56.4941-11.2793 75.9277-33.7402C103.955-66.0645 108.447-76.3184 101.318-83.5449C91.0645-93.8965 80.5176-86.3281 24.3652-30.1758L13.2812-19.043C12.6465-18.457 12.7441-17.7734 13.2812-17.1387Z"/>
  </g>
  <g id="Black-M" transform="matrix(1 0 0 1 2869.31 1126)">
   <path d="M12.3047-20.9473C15.5273-17.627 20.6543-17.6758 23.9258-20.9473L32.5195-29.541C69.1895-66.2598 77.6855-72.4609 79.1992-70.9961C80.8105-69.4336 74.9512-63.4766 60.3516-46.3379C46.9238-30.4688 29.541-11.084 42.4316 1.85547C54.3945 13.8672 72.2168-1.61133 84.4727-13.2812C86.5723-15.2344 88.3301-16.8945 89.8438-18.3105C85.498-10.4004 81.0059 0.585938 88.4277 8.00781C94.8242 14.4043 104.395 11.5723 115.381 0.537109C118.945-2.97852 119.238-8.10547 115.82-11.4258C113.33-13.916 109.717-14.4531 106.689-13.0859C114.307-26.2695 115.088-33.3984 109.717-38.7207C102.979-45.4102 91.748-42.6758 73.0469-25.1465C62.7441-15.5273 54.8828-9.0332 54.0039-9.91211C53.2715-10.6934 59.5215-20.459 72.7051-35.6445C95.7031-62.207 100.244-73.1445 90.7227-82.6172C78.6621-94.6289 67.4316-87.5488 20.9961-41.1133L12.4023-32.4707C9.17969-29.2969 9.17969-24.2188 12.3047-20.9473Z"/>
  </g>
  <g id="Heavy-M" transform="matrix(1 0 0 1 2573.65 1126)">
   <path d="M12.0117-21.2402C14.8438-18.3105 19.2383-18.3594 22.1191-21.2402L30.7129-29.834C65.8203-64.9414 76.3184-73.7793 78.8574-71.2891C81.1035-69.0918 74.2188-61.7188 60.0586-45.0684C46.6309-29.2969 29.9316-10.6934 42.1387 1.5625C53.2715 12.793 70.2148-1.66016 82.6172-13.5254C88.8184-19.4336 92.627-22.8516 94.873-24.8535C93.9453-23.6816 92.8711-22.0703 91.5527-19.8242C86.9141-11.8164 80.3711 0.0488281 88.0859 7.71484C93.9941 13.623 103.076 10.8398 113.623 0.244141C116.748-2.88086 116.992-7.32422 114.014-10.2051C111.23-12.9883 106.934-12.9883 104.053-10.3027C103.174-9.47266 102.246-8.59375 101.367-7.66602C102.197-8.98438 103.125-10.4492 103.857-11.7188C111.816-25 113.232-32.2754 107.91-37.5488C101.318-44.0918 90.5762-40.6738 72.6074-23.8281C61.2305-13.1348 53.6621-7.22656 52.1973-8.64258C50.7324-10.1074 56.7383-19.5801 70.8008-35.8398C92.8711-61.2793 98.0469-72.3145 88.916-81.3477C77.3926-92.8711 66.2109-85.4492 20.6543-39.8926L12.0605-31.2988C9.27734-28.4668 9.27734-24.0723 12.0117-21.2402Z"/>
  </g>
  <g id="Bold-M" transform="matrix(1 0 0 1 2278.11 1126)">
   <path d="M11.6699-21.5332C14.0137-19.0918 17.7246-19.1406 20.0684-21.5332L28.7109-30.127C62.0117-63.4766 74.8047-75.293 78.5156-71.582C81.4453-68.7012 73.3887-59.7656 59.7168-43.7012C46.3867-27.9785 30.3711-10.2051 41.7969 1.26953C52.0508 11.6211 67.9688-1.66016 80.5664-13.7695C92.1387-24.8535 96.582-28.6621 97.3145-27.9785C98.0469-27.2949 95.459-24.9023 91.6992-18.4082C87.0605-10.3516 80.7129 0.390625 87.6953 7.42188C93.0664 12.793 101.562 10.0586 111.621-0.0976562C114.307-2.7832 114.453-6.44531 112.012-8.83789C109.668-11.1816 106.104-11.1816 103.662-8.88672C99.2676-4.78516 95.7031-1.46484 95.459-1.66016C95.3613-1.66016 98.3398-6.25 101.66-11.7676C109.131-24.2188 110.889-31.2012 105.859-36.1816C99.4141-42.627 89.2578-38.4766 72.168-22.3633C59.5215-10.4004 52.2461-5.22461 50.1953-7.22656C47.9004-9.52148 53.5645-18.6035 68.6523-35.9863C89.6484-60.2539 95.6055-71.3379 86.9141-79.9805C75.9766-90.8691 64.8926-83.1055 20.3125-38.5254L11.7188-29.9316C9.375-27.5879 9.375-23.9258 11.6699-21.5332Z"/>
  </g>
  <g id="Semibold-M" transform="matrix(1 0 0 1 1982.23 1126)">
   <path d="M11.4746-21.7773C13.4766-19.6289 16.6504-19.6777 18.7012-21.7773L27.2949-30.3711C59.375-62.4512 73.7305-76.3184 78.2715-71.8262C81.6895-68.457 72.8027-58.4473 59.4727-42.7734C46.1914-27.0996 30.7129-9.86328 41.5527 1.07422C51.2207 10.791 66.4062-1.70898 79.1504-13.9648C90.0391-24.4629 95.6543-29.5898 97.0703-28.2227C98.3398-26.9531 95.5566-23.877 91.8457-17.3828C87.1582-9.32617 80.957 0.683594 87.4512 7.17773C92.4316 12.1582 100.537 9.52148 110.254-0.292969C112.598-2.68555 112.744-5.85938 110.645-7.91016C108.594-9.91211 105.518-9.91211 103.418-7.95898C98.0469-2.92969 94.6777-0.146484 94.0918-0.683594C93.5547-1.17188 96.1426-5.17578 100.146-11.8164C107.324-23.6816 109.326-30.4199 104.443-35.2539C98.0957-41.6016 88.3301-36.9141 71.875-21.3379C58.3008-8.54492 51.2695-3.80859 48.7793-6.25C45.9473-9.08203 51.416-17.9688 67.1875-36.084C87.5-59.5215 93.9453-70.6543 85.498-79.0527C75-89.5508 63.9648-81.4453 20.0684-37.5977L11.4746-29.0039C9.42383-26.9531 9.47266-23.8281 11.4746-21.7773Z"/>
  </g>
  <g id="Medium-M" transform="matrix(1 0 0 1 1686.13 1126)">
   <path d="M11.2793-21.9238C13.0859-20.0684 15.8203-20.1172 17.627-21.9238L26.2207-30.5176C57.4219-61.6699 72.9492-77.0996 78.125-71.9727C81.8359-68.2617 72.3633-57.4219 59.2773-42.041C46.0449-26.416 30.957-9.61914 41.4062 0.878906C50.5859 10.1562 65.2344-1.70898 78.0273-14.0625C88.4766-24.1699 94.9707-30.2734 96.875-28.3691C98.5352-26.709 95.6055-23.0957 91.8945-16.6504C87.2559-8.54492 81.1523 0.878906 87.2559 7.03125C91.9922 11.7188 99.7559 9.13086 109.18-0.488281C111.328-2.63672 111.426-5.37109 109.57-7.22656C107.764-8.98438 105.078-8.93555 103.223-7.22656C97.1191-1.51367 93.8965 0.830078 93.0664 0.0488281C92.1387-0.830078 94.4336-4.3457 99.0234-11.8652C105.908-23.2422 108.105-29.8828 103.369-34.5703C97.1191-40.8203 87.6465-35.791 71.6309-20.5566C57.4219-7.12891 50.5371-2.7832 47.7539-5.51758C44.4336-8.74023 49.7559-17.4316 66.0645-36.1816C85.791-58.9844 92.6758-70.166 84.4727-78.3203C74.2188-88.5254 63.2324-80.2246 19.873-36.8652L11.2793-28.2715C9.47266-26.4648 9.52148-23.7305 11.2793-21.9238Z"/>
  </g>
  <g id="Regular-M" transform="matrix(1 0 0 1 1390.23 1126)">
   <path d="M11.0352-22.1191C12.5488-20.6055 14.7949-20.6543 16.2598-22.1191L24.8535-30.7129C54.834-60.6934 71.875-78.125 77.8809-72.168C82.0801-67.9688 71.7773-56.1035 59.082-41.1133C45.8496-25.4883 31.25-9.27734 41.1621 0.683594C49.7559 9.32617 63.6719-1.70898 76.6113-14.2578C86.4258-23.7793 94.043-31.1523 96.6309-28.6133C98.8281-26.416 95.7031-22.0703 91.9922-15.6738C87.3047-7.56836 81.3477 1.12305 87.0117 6.78711C91.3574 11.1328 98.7305 8.59375 107.812-0.732422C109.668-2.53906 109.717-4.78516 108.203-6.29883C106.689-7.76367 104.492-7.71484 102.979-6.25C95.8984 0.341797 92.8711 2.14844 91.6992 0.976562C90.332-0.390625 92.2852-3.32031 97.5098-11.9141C104.102-22.7051 106.494-29.1504 102.002-33.6426C95.8496-39.8438 86.7188-34.2285 71.3379-19.5801C56.25-5.27344 49.5605-1.41602 46.3867-4.54102C42.5293-8.30078 47.6074-16.7969 64.5996-36.3281C83.6426-58.3008 91.0156-69.4824 83.0566-77.3926C73.2422-87.1582 62.3047-78.6133 19.6777-35.9375L11.0352-27.3438C9.57031-25.8789 9.61914-23.6328 11.0352-22.1191Z"/>
  </g>
  <g id="Light-M" transform="matrix(1 0 0 1 1094.34 1126)">
   <path d="M10.8398-21.8262C11.9629-20.6543 13.6719-20.6543 14.8438-21.8262L23.4375-30.4688C57.0312-64.0137 71.5332-77.9785 77.6367-71.875C82.1777-67.3828 72.7051-56.0059 58.5449-39.3066C45.6543-24.1211 31.5918-8.44727 40.918 0.976562C48.4863 8.59375 61.0352 0.0488281 74.9023-13.623C85.5957-24.2676 93.4082-31.25 96.2891-28.3691C98.6328-26.0742 95.8984-21.7285 91.7969-14.502C87.0605-6.34766 81.543 1.85547 86.7188 7.03125C90.6738 10.9863 97.7539 8.69141 106.543-0.537109C107.91-1.95312 107.959-3.66211 106.787-4.83398C105.615-6.00586 103.906-5.95703 102.686-4.78516C96.0449 1.5625 91.8945 4.05273 90.3809 2.53906C88.7695 0.878906 90.7715-2.83203 96.0449-11.4746C102.686-22.3633 104.59-28.2227 100.439-32.3242C94.9219-37.8418 86.5234-33.1055 70.7031-17.7734C56.3477-3.95508 48.7305 0.585938 44.9707-3.07617C40.4297-7.51953 46.4355-16.748 62.793-35.5957C82.7148-58.5449 88.8672-68.75 81.6406-75.9277C72.4121-85.1562 62.3535-77.4414 19.4336-34.5215L10.8398-25.9277C9.66797-24.7559 9.7168-22.998 10.8398-21.8262Z"/>
  </g>
  <g id="Thin-M" transform="matrix(1 0 0 1 798.707 1126)">
   <path d="M10.498-21.4844C11.2305-20.7031 12.207-20.7031 12.9883-21.4844L21.582-30.0781C59.9609-68.457 71.0449-77.7344 77.2949-71.5332C82.2754-66.6016 73.9746-55.9082 57.8613-36.9141C45.4102-22.2168 31.9824-7.37305 40.625 1.31836C46.8262 7.61719 57.5684 2.39258 72.6074-12.8418C84.4727-24.9023 92.5781-31.3477 95.8984-28.125C98.3398-25.6836 96.2402-21.2891 91.4551-12.9883C86.7188-4.78516 81.7383 2.7832 86.2793 7.27539C89.7949 10.8398 96.4844 8.74023 104.785-0.292969C105.615-1.17188 105.713-2.19727 104.932-2.92969C104.15-3.66211 103.125-3.61328 102.344-2.83203C96.1914 3.22266 90.625 6.54297 88.623 4.58984C86.6211 2.58789 88.7695-2.14844 94.043-10.8398C100.83-21.9238 102.002-27.002 98.4375-30.5664C93.75-35.2539 86.2305-31.543 69.873-15.3809C56.4941-2.14844 47.6074 3.27148 43.0664-1.12305C37.6465-6.44531 44.873-16.6992 60.4492-34.7168C81.4453-58.8867 85.9863-67.7734 79.7852-73.9746C71.3379-82.5195 62.4023-75.8789 19.0918-32.6172L10.498-24.0234C9.76562-23.2422 9.81445-22.2168 10.498-21.4844Z"/>
  </g>
  <g id="Ultralight-M" transform="matrix(1 0 0 1 502.558 1126)">
   <path d="M10.3516-21.2891C10.8398-20.752 11.4746-20.752 12.0117-21.2891L20.6055-29.8828C61.4746-70.7031 70.8008-77.6367 77.1484-71.3379C82.3242-66.2109 74.6094-55.9082 57.5195-35.7422C45.2637-21.2891 32.1777-6.78711 40.4297 1.51367C45.9961 7.12891 55.7617 3.61328 71.3867-12.4023C83.9355-25.2441 92.1387-31.3965 95.6543-27.9785C98.2422-25.4395 96.3867-21.0449 91.3086-12.207C86.5723-3.95508 81.8359 3.22266 86.084 7.42188C89.3555 10.7422 95.8008 8.78906 103.906-0.146484C104.443-0.78125 104.541-1.41602 103.955-1.95312C103.418-2.44141 102.734-2.44141 102.148-1.85547C96.2402 4.05273 89.9414 7.86133 87.7441 5.66406C85.5469 3.4668 87.7441-1.80664 93.0664-10.498C99.9023-21.7285 100.684-26.3672 97.4121-29.6387C93.1152-33.8867 86.084-30.7617 69.4824-14.1602C56.543-1.2207 47.0215 4.58984 42.1387-0.146484C36.2305-5.9082 44.0918-16.6992 59.2285-34.2285C80.8105-59.082 84.5215-67.2363 78.8574-72.998C70.752-81.1523 62.4023-75.0977 18.9453-31.6406L10.3516-23.0469C9.81445-22.4609 9.86328-21.8262 10.3516-21.2891Z"/>
  </g>
  <g id="Black-S" transform="matrix(1 0 0 1 2883.25 696)">
   <path d="M9.61914-24.0723C12.1094-21.4844 16.0645-21.5332 18.6035-24.0723L25.3418-30.8105C53.9062-59.375 60.7422-64.502 62.0117-63.2812C63.3301-62.0117 58.6426-57.2266 47.2656-43.8477C36.7188-31.4453 23.1445-16.3086 33.2031-6.20117C42.5293 3.17383 56.4453-8.93555 66.0645-18.0664C67.8711-19.7754 69.3848-21.1914 70.7031-22.3633C67.2363-16.1133 63.3301-7.32422 69.2383-1.36719C74.2188 3.61328 81.6895 1.36719 90.2832-7.22656C93.0176-9.96094 93.2617-13.916 90.625-16.5039C88.623-18.5059 85.7422-18.8965 83.3496-17.6758C89.3555-28.0762 90.0879-33.7402 85.8398-37.8906C80.5664-43.1152 71.7773-40.918 57.1777-27.2461C49.0234-19.6289 42.9199-14.5996 42.1875-15.332C41.5527-15.9668 46.4355-23.584 56.8359-35.5957C74.7559-56.2988 78.3691-64.8926 70.9473-72.2656C61.5234-81.6406 52.7344-76.0742 16.4062-39.7461L9.66797-33.0078C7.17773-30.5176 7.17773-26.6113 9.61914-24.0723Z"/>
  </g>
  <g id="Heavy-S" transform="matrix(1 0 0 1 2587.25 696)">
   <path d="M9.42383-24.3164C11.6699-22.0215 15.1367-22.0703 17.3828-24.3164L24.1211-31.0547C51.0742-58.0078 59.7656-65.5273 61.8164-63.5254C63.5742-61.8164 58.0078-55.9082 47.1191-43.1152C36.5723-30.7129 23.4375-16.0645 33.0078-6.44531C41.8457 2.44141 55.2246-9.13086 64.8438-18.3105C69.6777-22.9004 72.6562-25.5859 74.3652-27.1484C73.6816-26.2207 72.8027-24.9512 71.7773-23.2422C68.1641-16.9434 62.9883-7.66602 69.043-1.61133C73.6816 3.02734 80.8105 0.830078 89.0625-7.4707C91.5527-9.96094 91.748-13.4277 89.4043-15.7227C87.207-17.9199 83.8379-17.9199 81.543-15.8203C80.9082-15.2344 80.2734-14.5996 79.6875-14.0137C80.2734-14.9414 80.9082-15.918 81.4453-16.8457C87.6465-27.2461 88.8184-32.959 84.6191-37.1094C79.3945-42.334 70.8984-39.5508 56.9336-26.4648C47.8516-17.9199 42.0898-13.4277 40.9668-14.502C39.8438-15.625 44.4336-22.9492 55.5664-35.791C72.7051-55.5664 76.9531-64.3066 69.7266-71.4844C60.6445-80.5176 51.8066-74.6094 16.2109-38.9648L9.47266-32.2266C7.27539-30.0293 7.27539-26.5625 9.42383-24.3164Z"/>
  </g>
  <g id="Bold-S" transform="matrix(1 0 0 1 2291.34 696)">
   <path d="M9.22852-24.6094C11.1328-22.6074 14.1113-22.6562 16.0156-24.6094L22.7539-31.3477C47.9004-56.4453 58.6426-66.6992 61.5723-63.8184C63.8184-61.6211 57.2266-54.3945 46.9238-42.2852C36.377-29.8828 23.7305-15.8203 32.8125-6.73828C41.0645 1.61133 53.8086-9.375 63.4766-18.6035C72.3145-26.9531 75.7812-30.127 76.3184-29.6387C76.9043-29.1016 74.7559-27.1484 71.9238-22.2656C68.3105-15.9668 63.2324-7.4707 68.7988-1.9043C73.0469 2.39258 79.7363 0.244141 87.6953-7.76367C89.8926-9.96094 90.0391-12.9395 88.0371-14.8926C86.1328-16.748 83.252-16.748 81.2988-14.9414C77.6855-11.6211 75.1465-9.17969 75.0488-9.27734C75-9.22852 77.2949-12.5977 79.9805-16.9922C85.791-26.6602 87.3047-32.2754 83.252-36.2793C78.0762-41.4551 69.9219-37.9883 56.6895-25.5371C46.5332-16.0156 41.1133-12.1582 39.5996-13.623C37.9395-15.2344 42.1875-22.168 54.1504-35.9863C70.3613-54.7363 75.3906-63.6719 68.3594-70.6055C59.668-79.248 50.7812-72.9492 15.9668-38.1348L9.22852-31.3965C7.32422-29.4922 7.37305-26.5137 9.22852-24.6094Z"/>
  </g>
  <g id="Semibold-S" transform="matrix(1 0 0 1 1995.2 696)">
   <path d="M9.0332-24.7559C10.7422-22.998 13.3789-23.0469 15.0879-24.7559L21.8262-31.4941C45.7031-55.4199 57.8613-67.5293 61.4258-63.9648C63.9648-61.4258 56.6895-53.3691 46.7773-41.6992C36.2793-29.2969 23.9746-15.625 32.6172-6.88477C40.5273 1.02539 52.8809-9.57031 62.5488-18.75C70.752-26.6113 75.1465-30.8105 76.1719-29.834C77.1484-28.8574 74.8047-26.416 72.0215-21.6309C68.4082-15.2832 63.3789-7.32422 68.6523-2.09961C72.6562 1.95312 79.0527-0.195312 86.7676-7.95898C88.7695-9.91211 88.8672-12.5488 87.1094-14.3066C85.4004-15.9668 82.8613-15.9668 81.1035-14.3066C76.7578-10.2539 74.4629-8.34961 74.1211-8.64258C73.7793-8.98438 75.7324-11.8164 78.9551-17.041C84.4727-26.2695 86.2305-31.7871 82.3242-35.6934C77.1484-40.8203 69.2383-36.9141 56.4941-24.9023C45.6543-14.7461 40.4297-11.2793 38.6719-12.9883C36.6211-14.9902 40.625-21.6797 53.1738-36.1328C68.7988-54.1504 74.2676-63.2324 67.4316-70.0195C58.9844-78.418 50.0488-71.7773 15.8203-37.5488L9.08203-30.8105C7.37305-29.1016 7.42188-26.4648 9.0332-24.7559Z"/>
  </g>
  <g id="Medium-S" transform="matrix(1 0 0 1 1698.9 696)">
   <path d="M8.93555-24.9023C10.4492-23.3398 12.8418-23.3887 14.3555-24.9023L21.0938-31.6406C44.043-54.5898 57.2754-68.1152 61.2793-64.1113C64.1113-61.3281 56.2988-52.6367 46.6797-41.2598C36.1816-28.8574 24.1211-15.4785 32.5195-7.03125C40.1367 0.585938 52.1484-9.66797 61.8164-18.8965C69.6289-26.3672 74.6582-31.2988 76.0254-29.9316C77.2949-28.7109 74.8047-25.8301 72.1191-21.1426C68.457-14.7949 63.5254-7.22656 68.5059-2.19727C72.3145 1.61133 78.5156-0.488281 86.084-8.10547C87.8906-9.91211 87.9395-12.3047 86.377-13.8184C84.8633-15.3809 82.5684-15.332 80.957-13.8672C76.0254-9.27734 73.9258-7.71484 73.4375-8.20312C72.8027-8.78906 74.5605-11.2305 78.1738-17.1387C83.4961-25.9766 85.4492-31.3965 81.5918-35.2539C76.416-40.3809 68.75-36.084 56.3477-24.4629C44.9219-13.7207 39.9414-10.5957 37.9395-12.5C35.6445-14.7949 39.4043-21.2891 52.4414-36.2793C67.5781-53.7109 73.4375-62.8906 66.6992-69.5801C58.4961-77.7344 49.5117-70.8984 15.6738-37.0605L8.93555-30.3223C7.42188-28.8086 7.4707-26.4648 8.93555-24.9023Z"/>
  </g>
  <g id="Regular-S" transform="matrix(1 0 0 1 1402.73 696)">
   <path d="M8.78906-25.0977C10.1074-23.7305 12.1094-23.7793 13.4277-25.0977L20.166-31.8359C41.8945-53.5645 56.4941-68.8965 61.1328-64.3066C64.2578-61.1816 55.8105-51.6113 46.5332-40.6738C36.0352-28.3203 24.3652-15.2832 32.373-7.22656C39.5996 0.0488281 51.1719-9.81445 60.8887-19.0918C68.1152-26.0254 74.0234-31.9824 75.8789-30.127C77.5391-28.4668 74.8535-25.0977 72.2168-20.459C68.5547-14.1113 63.6719-7.08008 68.3594-2.39258C71.9238 1.17188 77.832-0.927734 85.1074-8.25195C86.7676-9.91211 86.7676-11.9141 85.4492-13.2324C84.1309-14.5508 82.1777-14.502 80.8105-13.2324C75.0977-7.95898 73.2422-6.88477 72.4609-7.61719C71.582-8.54492 73.0469-10.4492 77.1484-17.1875C82.2266-25.5859 84.375-30.9082 80.6641-34.668C75.5371-39.7949 68.0664-35.0098 56.2012-23.8281C44.043-12.4512 39.2578-9.7168 37.0117-11.8652C34.3262-14.502 37.8906-20.8008 51.4648-36.4258C66.0156-53.1738 72.3633-62.4512 65.7715-68.9453C57.8125-76.9043 48.8281-69.7754 15.5273-36.4746L8.78906-29.7363C7.4707-28.418 7.51953-26.416 8.78906-25.0977Z"/>
  </g>
  <g id="Light-S" transform="matrix(1 0 0 1 1106.75 696)">
   <path d="M8.59375-24.8535C9.61914-23.7793 11.1328-23.8281 12.207-24.8535L18.9453-31.5918C43.8477-56.4941 56.2012-68.75 60.9375-64.0625C64.3555-60.6445 56.6406-51.5625 46.0938-39.1113C35.8398-27.0508 24.6094-14.5508 32.1777-6.98242C38.4766-0.634766 48.8281-8.25195 59.3262-18.5547C67.3828-26.4648 73.4375-32.0801 75.5859-29.9316C77.3438-28.1738 75.0488-24.8047 72.0215-19.4336C68.3105-13.0859 63.8184-6.44531 68.0664-2.19727C71.2891 1.02539 76.9531-0.878906 83.9844-8.10547C85.2051-9.375 85.2539-10.9375 84.2285-11.9629C83.1543-12.9883 81.6406-12.9883 80.5664-11.9629C75.1953-6.88477 72.3633-5.17578 71.3379-6.25C70.166-7.42188 71.6797-10.0098 75.8301-16.7969C81.0059-25.293 82.666-30.0781 79.2969-33.4473C74.707-38.0371 67.8711-33.9844 55.6152-22.2656C44.1406-11.2305 38.5254-7.91016 35.791-10.5957C32.4707-13.8184 36.8164-20.752 49.9023-35.791C65.1367-53.418 70.459-61.7676 64.5508-67.6758C57.0801-75.0977 48.8281-68.75 15.332-35.2051L8.59375-28.4668C7.51953-27.4414 7.56836-25.8789 8.59375-24.8535Z"/>
  </g>
  <g id="Thin-S" transform="matrix(1 0 0 1 810.988 696)">
   <path d="M8.30078-24.5117C8.93555-23.8281 9.86328-23.8281 10.5469-24.5117L17.2852-31.25C46.4355-60.4004 55.7617-68.6035 60.6445-63.7207C64.4531-59.9609 57.7148-51.4648 45.459-37.0117C35.5957-25.3906 25-13.623 31.8848-6.64062C37.0117-1.46484 45.752-6.20117 57.3242-17.8223C66.4062-27.002 72.7051-32.1777 75.1953-29.6875C77.0996-27.832 75.3418-24.3652 71.7285-18.1152C68.0176-11.6699 64.0137-5.66406 67.6758-1.95312C70.5078 0.878906 75.8301-0.78125 82.4219-7.91016C83.2031-8.69141 83.252-9.61914 82.5684-10.3027C81.8848-10.9375 80.957-10.9375 80.2246-10.2051C75.3418-5.41992 71.2402-2.97852 69.7754-4.44336C68.2617-5.9082 69.9219-9.47266 74.0723-16.2109C79.3457-24.9023 80.4199-29.0039 77.4902-31.8848C73.6816-35.7422 67.627-32.666 54.9316-20.1172C44.2383-9.66797 37.5-5.56641 34.1309-8.88672C30.0293-12.8906 35.4492-20.752 47.8027-35.0098C64.0625-53.7109 67.9199-60.8887 62.8906-65.9668C56.1035-72.7539 48.877-67.3828 15.0391-33.5449L8.30078-26.8066C7.61719-26.123 7.66602-25.1953 8.30078-24.5117Z"/>
  </g>
  <g id="Ultralight-S" transform="matrix(1 0 0 1 514.765 696)">
   <path d="M8.1543-24.3652C8.59375-23.877 9.17969-23.877 9.66797-24.3652L16.4062-31.1035C47.7539-62.4512 55.5176-68.457 60.498-63.5742C64.502-59.6191 58.3008-51.416 45.166-35.9375C35.498-24.5605 25.1953-13.0859 31.7383-6.49414C36.2793-1.9043 44.1895-5.12695 56.25-17.4805C65.918-27.3438 72.3145-32.2266 75-29.5898C77.002-27.6367 75.4883-24.1699 71.582-17.3828C67.8711-10.9375 64.1113-5.22461 67.4805-1.85547C70.1172 0.78125 75.2441-0.732422 81.6406-7.8125C82.1289-8.34961 82.2266-8.93555 81.6895-9.42383C81.2012-9.86328 80.6152-9.86328 80.0781-9.32617C75.3906-4.6875 70.6543-1.80664 68.9941-3.4668C67.334-5.17578 69.043-9.13086 73.1934-15.918C78.5156-24.707 79.248-28.4668 76.6113-31.1035C73.1445-34.5703 67.4805-31.9336 54.541-19.043C44.2871-8.83789 37.0117-4.39453 33.252-8.00781C28.7598-12.4023 34.7656-20.7031 46.7285-34.5703C63.4766-53.8574 66.6016-60.4492 62.0117-65.0879C55.6152-71.582 48.877-66.6504 14.8926-32.666L8.1543-25.9277C7.66602-25.4395 7.71484-24.8535 8.1543-24.3652Z"/>
  </g>
 </g>
</svg>
